<svg
    xmlns="http://www.w3.org/2000/svg"
    viewBox="0 0 5000 4000"
    id="vector">
    <path
        id="path"
        d="M 1161 2056 L 3839 2056 C 4020 2056 4167 2203 4167 2383 L 4167 3346 C 4167 3526 4020 3673 3839 3673 L 1161 3673 C 980 3673 833 3526 833 3346 L 833 2383 C 833 2203 980 2056 1161 2056 Z M 3592 1391 C 3526 1638 3300 1820 3032 1820 C 2712 1820 2452 1560 2452 1240 C 2452 968 2639 740 2891 677 L 2891 912 C 2764 967 2675 1093 2675 1240 C 2675 1437 2835 1597 3032 1597 C 3175 1597 3298 1512 3355 1391 L 3592 1391 Z M 2301 558 L 2004 558 L 1676 1440 L 1348 558 L 1044 558 L 1551 1820 L 1794 1820 L 2301 558 Z M 3059 665 C 3059 665 3563 650 3618 1224 L 3390 1224 C 3358 883 3059 892 3059 892 L 3059 665 Z M 3039 1099 C 3120 1099 3186 1165 3186 1247 C 3186 1328 3120 1394 3039 1394 C 2958 1394 2892 1328 2892 1247 C 2892 1165 2958 1099 3039 1099 Z M 3059 327 C 3059 327 3867 303 3956 1224 L 3742 1224 C 3675 522 3059 540 3059 540 L 3059 327 Z M 2146 3381 L 2146 3176 L 1631 3176 L 1631 2348 L 1404 2348 L 1404 3381 L 2146 3381 Z M 2555 3381 L 2555 2348 L 2328 2348 L 2328 3381 L 2555 3381 Z M 3596 2558 L 3596 2348 L 2740 2348 L 2740 2558 L 3054 2558 L 3054 3381 L 3281 3381 L 3281 2558 L 3596 2558 Z"
        fill="#ffffff"/>
</svg>
