<svg width="5" height="5" viewBox="0 0 5 5" fill="none" xmlns="http://www.w3.org/2000/svg">
<g clip-path="url(#clip0)">
<path fill-rule="evenodd" clip-rule="evenodd" d="M1.16101 2.55596H3.839C4.02 2.55596 4.167 2.70296 4.167 2.88296V3.84596C4.167 4.02596 4.02 4.17295 3.839 4.17295H1.16101C0.980007 4.17295 0.833008 4.02596 0.833008 3.84596V2.88296C0.833008 2.70296 0.980007 2.55596 1.16101 2.55596ZM3.592 1.89096C3.526 2.13796 3.3 2.31996 3.032 2.31996C2.712 2.31996 2.452 2.05996 2.452 1.73996C2.452 1.46796 2.639 1.23996 2.891 1.17696V1.41196C2.764 1.46696 2.675 1.59296 2.675 1.73996C2.675 1.93696 2.835 2.09696 3.032 2.09696C3.175 2.09696 3.298 2.01196 3.355 1.89096H3.592ZM2.301 1.05796H2.004L1.67601 1.93996L1.34801 1.05796H1.04401L1.55101 2.31996H1.79401L2.301 1.05796ZM3.059 1.16496C3.059 1.16496 3.563 1.14996 3.618 1.72396H3.39C3.358 1.38296 3.059 1.39196 3.059 1.39196V1.16496ZM3.039 1.59896C3.12 1.59896 3.186 1.66496 3.186 1.74696C3.186 1.82796 3.12 1.89396 3.039 1.89396C2.958 1.89396 2.892 1.82796 2.892 1.74696C2.892 1.66496 2.958 1.59896 3.039 1.59896ZM3.059 0.826963C3.059 0.826963 3.867 0.802963 3.956 1.72396H3.742C3.675 1.02196 3.059 1.03996 3.059 1.03996V0.826963ZM2.146 3.88096V3.67596H1.63101V2.84796H1.40401V3.88096H2.146ZM2.555 3.88096V2.84796H2.328V3.88096H2.555ZM3.596 3.05796V2.84796H2.74V3.05796H3.054V3.88096H3.281V3.05796H3.596Z" fill="white"/>
</g>
<defs>
<clipPath id="clip0">
<rect width="4.99999" height="5" fill="white"/>
</clipPath>
</defs>
</svg>
